<?xml version="1.0" encoding="UTF-8" standalone="no"?>
<!-- Created with Inkscape (http://www.inkscape.org/) -->

<svg
   width="400"
   height="400"
   viewBox="0 0 105.83333 105.83333"
   version="1.1"
   id="svg5"
   inkscape:version="1.2.2 (b0a8486, 2022-12-01)"
   sodipodi:docname="logo.svg"
   inkscape:export-filename="logo.png"
   inkscape:export-xdpi="96"
   inkscape:export-ydpi="96"
   xmlns:inkscape="http://www.inkscape.org/namespaces/inkscape"
   xmlns:sodipodi="http://sodipodi.sourceforge.net/DTD/sodipodi-0.dtd"
   xmlns:xlink="http://www.w3.org/1999/xlink"
   xmlns="http://www.w3.org/2000/svg"
   xmlns:svg="http://www.w3.org/2000/svg">
  <sodipodi:namedview
     id="namedview7"
     pagecolor="#505050"
     bordercolor="#eeeeee"
     borderopacity="1"
     inkscape:showpageshadow="0"
     inkscape:pageopacity="0"
     inkscape:pagecheckerboard="true"
     inkscape:deskcolor="#505050"
     inkscape:document-units="px"
     showgrid="false"
     showborder="true"
     inkscape:zoom="1.9025"
     inkscape:cx="317.73982"
     inkscape:cy="149.54008"
     inkscape:window-width="1920"
     inkscape:window-height="1080"
     inkscape:window-x="1920"
     inkscape:window-y="0"
     inkscape:window-maximized="0"
     inkscape:current-layer="layer1" />
  <defs
     id="defs2">
    <linearGradient
       inkscape:collect="always"
       id="linearGradient17778">
      <stop
         style="stop-color:#65ec83;stop-opacity:1;"
         offset="0"
         id="stop17774" />
      <stop
         style="stop-color:#3baa54;stop-opacity:0;"
         offset="1"
         id="stop17776" />
    </linearGradient>
    <linearGradient
       inkscape:collect="always"
       id="linearGradient17768">
      <stop
         style="stop-color:#56cd70;stop-opacity:0.51327431;"
         offset="0"
         id="stop17764" />
      <stop
         style="stop-color:#285c34;stop-opacity:0;"
         offset="1"
         id="stop17766" />
    </linearGradient>
    <inkscape:path-effect
       effect="powerstroke"
       id="path-effect1285"
       is_visible="true"
       lpeversion="1"
       offset_points="6.690103,0.30340181 | 8.0672352,0.26431464 | 20.223847,0.31734317"
       not_jump="false"
       sort_points="true"
       interpolator_type="CentripetalCatmullRom"
       interpolator_beta="0.3"
       start_linecap_type="zerowidth"
       linejoin_type="round"
       miter_limit="9"
       scale_width="7.5"
       end_linecap_type="zerowidth" />
    <inkscape:path-effect
       effect="sketch"
       id="path-effect1283"
       is_visible="true"
       lpeversion="1"
       nbiter_approxstrokes="2"
       strokelength="100"
       strokelength_rdm="0.3;1"
       strokeoverlap="0.3"
       strokeoverlap_rdm="0.3;1"
       ends_tolerance="0.1;1"
       parallel_offset="5;1"
       tremble_size="5;1"
       tremble_frequency="1"
       nbtangents="5"
       tgt_places_rdmness="1;1"
       tgtscale="10"
       tgtlength="100"
       tgtlength_rdm="0.3;1" />
    <inkscape:path-effect
       effect="rough_hatches"
       id="path-effect1281"
       is_visible="true"
       lpeversion="1.2"
       direction="52.799299,48.133598 , 25.559811,0"
       dist_rdm="75;1"
       growth="0"
       do_bend="true"
       bender="52.799299,53.133598 , 5,0"
       bottom_edge_variation="10.322888;1"
       top_edge_variation="10.322888;1"
       bottom_tgt_variation="0;1"
       top_tgt_variation="0;1"
       scale_bf="1"
       scale_bb="1"
       scale_tf="1"
       scale_tb="1"
       top_smth_variation="0;1"
       bottom_smth_variation="0;1"
       fat_output="true"
       stroke_width_top="1"
       stroke_width_bottom="1"
       front_thickness="1"
       back_thickness="0.25" />
    <inkscape:path-effect
       effect="bspline"
       id="path-effect725"
       is_visible="true"
       lpeversion="1"
       weight="33.333333"
       steps="2"
       helper_size="0"
       apply_no_weight="true"
       apply_with_weight="true"
       only_selected="false" />
    <radialGradient
       inkscape:collect="always"
       xlink:href="#linearGradient17778"
       id="radialGradient17780"
       cx="-54.408283"
       cy="-96.096107"
       fx="-54.408283"
       fy="-96.096107"
       r="30.09049"
       gradientTransform="matrix(-0.9999764,-0.00655593,0.00186218,-0.32891233,-108.63634,-60.53677)"
       gradientUnits="userSpaceOnUse" />
    <linearGradient
       inkscape:collect="always"
       xlink:href="#linearGradient17768"
       id="linearGradient17782"
       x1="55.299664"
       y1="35.228809"
       x2="55.279541"
       y2="0.81039691"
       gradientUnits="userSpaceOnUse"
       gradientTransform="matrix(0.9999765,0,0,1.0192173,-0.52791141,-2.0240003)" />
    <inkscape:path-effect
       effect="powerstroke"
       id="path-effect17837"
       is_visible="true"
       lpeversion="1"
       offset_points="0.38675088,0.24966741 | 0.99147692,0.26225841 | 1.8,0.12019965"
       not_jump="false"
       sort_points="true"
       interpolator_type="CentripetalCatmullRom"
       interpolator_beta="0.3"
       start_linecap_type="zerowidth"
       linejoin_type="round"
       miter_limit="4"
       scale_width="1"
       end_linecap_type="zerowidth" />
    <inkscape:path-effect
       effect="powerstroke"
       id="path-effect17837-2"
       is_visible="true"
       lpeversion="1"
       offset_points="0.48463766,0.044967483 | 0.99844192,0.17975196 | 1.3806295,0.10880218"
       not_jump="false"
       sort_points="true"
       interpolator_type="CentripetalCatmullRom"
       interpolator_beta="0.3"
       start_linecap_type="zerowidth"
       linejoin_type="round"
       miter_limit="4"
       scale_width="1"
       end_linecap_type="zerowidth" />
  </defs>
  <g
     inkscape:label="Layer 1"
     inkscape:groupmode="layer"
     id="layer1">
    <path
       style="fill:#0c1116;fill-opacity:1;fill-rule:nonzero;stroke:#0c1116;stroke-width:0.259631;stroke-linecap:round;stroke-linejoin:round;stroke-dasharray:none;stroke-opacity:1"
       inkscape:path-effect="#path-effect725;#path-effect1285"
       inkscape:original-d="m 57.390622,38.70879 c 4.095758,0.20993 8.191143,0.419583 12.286448,0.628976 11.137396,-2.159545 22.273856,-4.319229 33.41074,-6.479317 C 101.42136,24.630058 99.754755,16.401905 98.087782,8.1729812 87.166377,6.2662201 76.245367,4.3593047 65.323426,2.4520033 57.373517,2.5097647 49.423831,2.5672528 41.473395,2.6244749 30.261594,4.8290257 19.050205,7.0331738 7.8378811,9.2371837 5.4870152,15.920966 3.1360269,22.604074 0.78462853,29.287325 7.9338566,31.894111 15.082383,34.500469 22.231065,37.106709 c 3.488129,0.220615 6.975788,0.440947 10.463397,0.661023 2.251095,-0.912832 4.501777,-1.825873 6.752347,-2.739247 -1.72683,-1.828155 -3.453807,-3.656459 -5.181162,-5.48515 -3.364568,-0.419975 -6.729192,-0.840195 -10.094284,-1.260708 -3.77601,1.914925 -7.552058,3.829468 -11.328599,5.743857 -3.3544159,4.076842 -6.7089573,8.153263 -10.0638245,12.229504 0.057753,8.886511 0.1152438,17.772405 0.172476,26.65822 3.8084092,6.984988 7.6163285,13.969297 11.4242205,20.953768 9.265147,2.916021 18.529478,5.831615 27.794105,8.747114 8.88642,0.0416 17.772048,0.083 26.657947,0.12399 8.035523,-2.840455 16.070306,-5.680991 24.105313,-8.521961 3.891777,-7.431506 7.783139,-14.862971 11.674299,-22.294842 -1.03299,-8.422969 -2.06619,-16.845665 -3.09971,-25.269171 -2.442626,-4.562724 -4.885411,-9.125529 -7.328505,-13.688684"
       d="m 57.390622,38.70879 c 1.337907,0.105627 3.859573,0.327868 6.586725,0.350062 2.213702,0.01801 5.145036,-0.0742 9.268694,-0.531316 3.51449,-0.389587 8.374145,-1.094799 12.942807,-2.407661 2.147128,-0.617004 4.287031,-1.384236 6.209844,-2.343646 1.854164,-0.925156 3.551686,-2.051284 4.856229,-3.433425 1.277917,-1.353932 2.16541,-2.938841 2.649193,-4.667934 0.472806,-1.689847 0.553736,-3.496455 0.253496,-5.316737 C 99.862463,18.568774 99.19972,16.771946 98.187661,15.073251 97.187339,13.394259 95.8459,11.811713 94.185296,10.433809 92.537278,9.0663501 90.596371,7.9178174 88.471848,6.947656 86.353443,5.9802882 84.045888,5.1872688 81.652432,4.5306489 76.852706,3.2138942 71.676453,2.4377669 66.958291,1.9157454 62.133427,1.3819183 57.740561,1.1099929 53.36488,1.0937381 48.825728,1.0768765 44.36017,1.3362811 39.623705,1.842584 34.542918,2.3856933 29.315513,3.1961227 24.501753,4.3867833 21.936388,5.0213143 19.525655,5.7545606 17.32334,6.5991668 14.979181,7.4981714 12.885288,8.5178329 11.08658,9.6733215 6.9562396,12.326649 4.5531275,15.566902 3.3679899,18.441662 c -0.5542745,1.34449 -0.8555563,2.631731 -0.9701881,3.817027 -0.040216,0.415836 -0.057574,0.819477 -0.055056,1.209791 0.012347,1.913709 0.5002062,3.531355 1.1771925,4.821144 0.8548356,1.628625 2.0758367,2.863929 3.1789353,3.761643 1.2389055,1.008235 2.675318,1.870899 4.2119702,2.621356 2.330111,1.137958 5.279505,2.207602 8.979053,3.163634 0.357578,0.0924 0.719104,0.18299 1.083291,0.270915 1.960437,0.473306 3.991773,0.870109 5.988582,1.072626 1.860902,0.188734 3.611541,0.20225 5.354073,0.0065 0.761942,-0.08557 1.531336,-0.212001 2.268442,-0.389111 0.690466,-0.165905 1.383887,-0.383787 2.022592,-0.67021 0.598066,-0.268199 1.222351,-0.629431 1.747999,-1.125462 0.25929,-0.244681 0.508698,-0.535468 0.716409,-0.878636 0.205435,-0.339408 0.367559,-0.726306 0.455203,-1.15669 0.08591,-0.421867 0.09123,-0.839985 0.03765,-1.23896 -0.05235,-0.389853 -0.160361,-0.758524 -0.301696,-1.099542 -0.273165,-0.659102 -0.689436,-1.260566 -1.169404,-1.79156 -0.918484,-1.016128 -2.221492,-1.940472 -3.741087,-2.63744 -2.870659,-1.316635 -6.708808,-1.901707 -10.873957,-1.080031 -3.960954,0.781395 -8.123537,2.822162 -12.046612,6.057914 -1.9201347,1.583727 -3.8484845,3.509924 -5.5252605,5.950233 -1.6710817,2.432023 -3.0695899,5.339648 -3.9914468,8.880414 -0.9129238,3.506454 -1.34635673,7.585911 -1.31304312,11.793564 0.0334736,4.227854 0.53845232,8.641324 1.53820882,12.817488 1.0098316,4.21825 2.530072,8.218099 4.6857885,11.845597 2.1898093,3.684867 5.0126761,6.946502 8.5558411,9.644676 3.589846,2.733722 7.835318,4.825474 12.233965,6.414024 4.525473,1.63436 9.304355,2.76924 13.898187,3.52211 9.787854,1.60411 18.973959,1.51551 27.362081,0.11396 4.550643,-0.76035 8.8441,-1.90279 12.758386,-3.48752 4.236961,-1.715368 7.948745,-3.916235 11.055094,-6.627151 3.437638,-3.000032 6.016862,-6.520407 7.878883,-10.038217 2.19282,-4.142758 3.434,-8.348309 4.04309,-12.134528 0.32479,-2.018963 0.47476,-3.944892 0.51998,-5.692567 0.0621,-2.401014 -0.0664,-4.718414 -0.31094,-6.875421 -0.48992,-4.322029 -1.45921,-8.145267 -2.46994,-11.133928 -1.22053,-3.609019 -2.628601,-6.374235 -3.830928,-8.462293 -1.490171,-2.58795 -3.669694,-5.713829 -4.340247,-6.742633 0.606107,1.412041 1.804637,4.38188 2.812293,7.429055 0.736005,2.2257 1.574738,5.081827 2.264118,8.604246 0.572075,2.923045 1.103384,6.612732 1.247484,10.633532 0.0721,2.011304 0.0482,4.136667 -0.12564,6.301789 -0.12664,1.576821 -0.34155,3.286094 -0.698598,5.049009 -0.670103,3.308622 -1.867897,6.932014 -3.840067,10.453786 -1.675301,2.991639 -3.915744,5.913668 -6.805515,8.363378 -2.604609,2.207972 -5.778351,4.066165 -9.530615,5.551605 -3.472062,1.374515 -7.355743,2.396326 -11.57336,3.086563 -7.752574,1.268753 -16.298957,1.36012 -25.481487,-0.126263 C 38.121192,97.610787 33.694599,96.56625 29.565287,95.092738 25.537638,93.655503 21.843149,91.827669 18.827012,89.558804 15.885354,87.345964 13.519576,84.66042 11.652676,81.572569 9.8077413,78.52105 8.4481752,75.072759 7.5138142,71.309327 6.5859308,67.571986 6.0908285,63.576952 6.0240863,59.733553 5.9574411,55.895745 6.3193955,52.291763 7.0552802,49.314755 7.7854314,46.36094 8.8926321,43.991094 10.194714,42.02722 c 1.314524,-1.982642 2.85665,-3.594662 4.481109,-4.988965 3.339957,-2.866748 6.738967,-4.573261 9.777856,-5.256816 3.20266,-0.720391 6.067972,-0.327944 8.088469,0.514987 1.090126,0.454791 1.896405,1.020676 2.375812,1.501306 0.250765,0.251404 0.365007,0.430334 0.419295,0.525166 0.02478,0.04329 0.02788,0.05205 0.02925,0.02538 0.0015,-0.02967 0.0017,-0.08977 0.02309,-0.172643 0.02169,-0.08421 0.05474,-0.143624 0.07766,-0.172062 0.0059,-0.0074 0.04396,-0.03756 -0.0019,0.01764 -0.06891,0.08293 -0.25287,0.228702 -0.582521,0.391826 -0.33963,0.168063 -0.774188,0.326139 -1.285684,0.463009 -0.539177,0.144276 -1.135829,0.257678 -1.760685,0.339586 -1.406589,0.184378 -2.864759,0.196433 -4.48442,0.03909 C 25.601109,35.084637 23.762221,34.724366 21.925039,34.258409 21.585478,34.172287 21.247375,34.082946 20.911752,33.99113 17.538364,33.068275 14.79957,31.974724 12.835328,30.913746 11.535332,30.211558 10.431232,29.460266 9.5448219,28.676086 8.7387743,27.963001 8.0152511,27.136558 7.549681,26.208297 7.1934301,25.497997 6.912082,24.577142 6.8995233,23.431314 c -0.0026,-0.237047 0.00633,-0.48677 0.02952,-0.748711 0.06586,-0.743818 0.2482219,-1.60332 0.620576,-2.549199 0.7903899,-2.007802 2.5305592,-4.591473 5.9006402,-6.853008 1.477995,-0.991827 3.280071,-1.924595 5.407581,-2.788351 1.995203,-0.8100398 4.224823,-1.5384121 6.65194,-2.1889667 4.564918,-1.2235622 9.583896,-2.1068104 14.551879,-2.7499653 4.609604,-0.5967591 8.939694,-0.9575405 13.334497,-1.0564603 4.238125,-0.095393 8.521272,0.052221 13.264474,0.4561831 4.654378,0.3963971 9.682368,1.0328858 14.313289,2.1774 2.305538,0.5698047 4.497394,1.2617941 6.489995,2.1054046 1.999339,0.8464626 3.780153,1.8380106 5.271759,2.9984996 1.500695,1.16756 2.722964,2.517726 3.648,3.95402 0.936042,1.453386 1.565061,2.99038 1.877129,4.51727 0.317139,1.551704 0.306791,3.090077 -0.03538,4.532724 -0.349447,1.473316 -1.046482,2.854945 -2.108313,4.067366 -1.096289,1.251764 -2.595351,2.338412 -4.336937,3.277584 -1.79861,0.969924 -3.837418,1.772822 -5.92404,2.438419 -4.435896,1.414977 -9.223407,2.250647 -12.705989,2.756969 -4.078982,0.593032 -6.979971,0.818291 -9.179183,0.913043 -2.736406,0.117896 -5.209709,0.04948 -6.580338,0.01725 z"
       id="path723"
       sodipodi:nodetypes="ccccccccccccccccccccccc" />
    <path
       style="fill:#232b32;fill-opacity:1;stroke:#20282f;stroke-width:0.670714;stroke-linecap:round;stroke-linejoin:miter;stroke-dasharray:none;stroke-opacity:1"
       d="M 52.804715,99.720325 C 45.759259,99.339386 37.808314,97.860029 31.527291,95.761435 25.652168,93.798458 20.645022,91.0776 17.272809,88.015621 11.989892,83.21872 8.6279451,76.416364 7.2040739,67.64316 6.6496674,64.22718 6.3038935,62.670266 6.3087333,58.996779 c 0.0049,-3.716679 0.351405,-6.532508 0.968275,-9.343954 1.1600802,-5.287185 3.8532997,-8.892165 5.4080047,-10.769596 0.777056,-0.938357 2.630567,-2.625117 3.998524,-2.24601 6.220721,1.723979 14.112979,1.807058 18.215173,0.814222 2.929956,-0.709124 4.189676,-2.213318 3.596195,-4.294105 -0.731384,-2.564275 -4.06551,-4.914962 -8.317122,-5.863888 -1.740351,-0.388433 -5.661688,-0.353937 -7.5714,0.0666 -2.952938,0.650275 -6.313394,2.11221 -9.01121,3.920244 -0.760655,0.50978 -1.419559,0.926873 -1.46423,0.926873 -0.04467,0 -0.650107,-0.374974 -1.345413,-0.833274 C 8.4354249,29.824852 6.7941492,27.947498 5.9995967,25.899561 5.7110031,25.15572 5.472399,24.645222 5.4684563,23.39681 5.4614186,21.167971 5.8994853,19.909071 6.9247295,17.891027 10.506769,10.840307 19.461072,6.9240251 36.394676,5.001961 48.558828,3.621258 60.820088,3.8088366 72.76466,5.5583662 85.443023,7.4153749 92.721291,10.722291 96.344098,16.271795 c 1.574869,2.412422 2.203985,4.386483 2.21001,6.934631 0.0056,2.374147 -0.621029,3.729874 -1.779154,5.589578 -1.263737,2.029294 -3.838869,3.047731 -3.838869,3.047731 l -0.31801,0.246201 c -0.457171,0.35394 -3.117968,1.494723 -4.9309,2.114067 -6.485804,2.215713 -17.798029,3.997096 -26.80518,4.221123 -2.486332,0.06184 -3.620619,0.139358 -3.656591,0.249898 -0.06931,0.212998 0.374533,0.282416 3.575728,0.55924 3.301716,0.285516 11.575226,-0.347915 15.088891,-0.852809 7.923953,-1.138626 10.997274,-2.108019 15.60924,-3.917491 0.818858,-0.321272 2.598868,-1.178998 2.617098,-1.159072 0.01823,0.01993 1.078424,2.275782 1.676101,3.367212 4.465328,8.154187 6.558938,16.680073 6.265188,25.513913 -0.35769,10.756954 -3.841651,19.838767 -10.054972,26.210782 -6.396807,6.560195 -16.414826,10.314995 -30.088999,11.277502 -1.8411,0.129593 -7.074324,0.156032 -9.108964,0.04603 z"
       id="path1431"
       sodipodi:nodetypes="ssssssssssssssssssssssscssssssssssssss" />
    <path
       style="fill:#232b32;fill-opacity:1;stroke:#20282f;stroke-width:0.667776;stroke-linecap:round;stroke-linejoin:round;stroke-dasharray:none;stroke-opacity:1"
       d="m 25.937904,36.52706 c -1.8357,-0.266856 -4.25734,-0.792018 -6.262807,-1.358166 L 18.077939,34.718011 18.822685,34.2378 c 1.926674,-1.242314 4.75229,-2.402905 6.842669,-2.810557 1.43842,-0.280511 4.255952,-0.274719 5.61568,0.01154 2.648402,0.557571 5.268322,2.2347 4.972906,3.183386 -0.18835,0.604855 -1.709504,1.32859 -3.753172,1.785685 -1.387132,0.31025 -4.819762,0.372598 -6.562864,0.119201 z"
       id="path1433" />
    <ellipse
       style="fill:#295b35;fill-opacity:1;stroke:none;stroke-width:0.240399;stroke-linecap:round;stroke-linejoin:round;stroke-dasharray:none;stroke-opacity:1"
       id="path1487"
       cx="53.674129"
       cy="16.260971"
       rx="32.959148"
       ry="7.6541743" />
    <path
       id="path17741"
       style="fill:url(#linearGradient17782);fill-opacity:1;stroke:none;stroke-width:0.138702;stroke-linecap:round;stroke-linejoin:round;stroke-dasharray:none;stroke-opacity:1"
       d="m 24.527787,17.268163 -0.348973,-0.637109 -0.06286,-0.384576 0.524798,-0.141929 0.779377,1.898191 z m 50.94036,2.594848 7.220836,-3.38039 0.494394,-0.134417 0.360068,0.156054 -1.268301,1.330285 -4.134214,1.421108 z M 24.1199,16.24326 c 2.290915,-2.829794 15.284199,-4.893763 30.437419,-4.812884 15.153221,0.08087 27.612548,2.281255 29.053394,5.130967 L 53.905329,18.50368 Z m 59.471685,0.315004 c -0.556273,1.710105 -6.439361,3.454888 -15.891138,4.306287 -9.45178,0.851398 -20.994472,0.885781 -30.031342,-0.08117 -9.03687,-0.966953 -14.28193,-2.826319 -13.470326,-4.602224"
       sodipodi:nodetypes="ccccccccccccccsccccssc" />
    <path
       id="path1487-5-6"
       style="fill:url(#radialGradient17780);stroke:none;stroke-width:0.238125;stroke-linecap:round;stroke-linejoin:round"
       transform="matrix(-0.99996925,0.00388218,-0.00425221,-1.0192081,-0.52791141,-2.0240003)"
       d="m -84.082308,-18.493733 a 29.897551,5.2425747 0 0 1 31.360151,-4.898833 29.897551,5.2425747 0 0 1 28.351891,5.433399"
       class="UnoptimicedTransforms" />
    <path
       id="path1487-5-6-1"
       style="fill:#38a550;fill-opacity:0.637931;fill-rule:nonzero;stroke:none;stroke-width:0.238125;stroke-linecap:round;stroke-linejoin:round"
       transform="matrix(-0.99996925,0.00388218,-0.00425221,-1.0192081,-0.33977952,-2.1179609)"
       d="m -84.155391,-17.659575 c -0.01213,-0.09246 -0.01521,-0.204027 0.0057,-0.32836 0.01627,-0.09665 0.04684,-0.19994 0.09801,-0.308447 0.08512,-0.180515 0.225702,-0.372337 0.447313,-0.573023 0.194,-0.175681 0.446531,-0.354929 0.769258,-0.536751 0.302873,-0.170635 0.661099,-0.339886 1.077832,-0.507417 0.834466,-0.335463 1.850815,-0.642974 3.001538,-0.927237 0.111028,-0.02743 0.222814,-0.05452 0.335276,-0.08128 1.057553,-0.251667 2.271898,-0.494997 3.645589,-0.723498 2.81334,-0.467975 6.248545,-0.865411 10.172262,-1.133238 3.5547,-0.242638 7.446976,-0.373999 11.461202,-0.354691 0.138115,6.65e-4 0.277089,0.0015 0.416889,0.0025 3.727123,0.02731 7.732155,0.147386 11.582581,0.420484 3.637221,0.257976 6.822831,0.630568 9.411466,1.113925 1.381571,0.257971 2.535149,0.536626 3.486646,0.82843 1.106083,0.339213 1.893763,0.682238 2.457324,1.0086 0.272304,0.157694 0.487908,0.308958 0.660294,0.450514 0.04727,0.03882 0.09221,0.07762 0.134872,0.116405 0.225221,0.204746 0.384868,0.406936 0.492284,0.606117 0.124605,0.231056 0.1772,0.455033 0.18322,0.66767 0.0087,0.308673 -0.08201,0.579076 -0.162152,0.758933 0.09318,-0.16859 0.219756,-0.434655 0.248765,-0.756113 0.02024,-0.2243 -0.0067,-0.474614 -0.119091,-0.742157 -0.09687,-0.230606 -0.25368,-0.465423 -0.483032,-0.700006 -0.04334,-0.04433 -0.08913,-0.0885 -0.137413,-0.13251 -0.176171,-0.160557 -0.397084,-0.32983 -0.675522,-0.504516 -0.575683,-0.361174 -1.378534,-0.73375 -2.49634,-1.098824 -0.961714,-0.314095 -2.125782,-0.612547 -3.51549,-0.888505 -2.602436,-0.516772 -5.804993,-0.916497 -9.451132,-1.197114 -3.859565,-0.297041 -7.879529,-0.435016 -11.612588,-0.474491 -0.140254,-0.0015 -0.279671,-0.0028 -0.418228,-0.0039 -4.026455,-0.0321 -7.93294,0.0831 -11.502166,0.31744 -3.938356,0.258582 -7.395967,0.656983 -10.227349,1.151165 -1.383003,0.241385 -2.60776,0.503932 -3.673932,0.782886 -0.113405,0.02967 -0.226131,0.05985 -0.338072,0.09053 -1.157839,0.317321 -2.186498,0.675921 -3.022777,1.070407 -0.418607,0.197463 -0.777929,0.398669 -1.079572,0.602322 -0.321653,0.217162 -0.570226,0.432043 -0.756153,0.6422 -0.21295,0.2407 -0.336036,0.466498 -0.399488,0.671587 -0.03797,0.122724 -0.05386,0.235671 -0.05635,0.337373 -0.0032,0.130375 0.0157,0.242825 0.03851,0.332541 z"
       inkscape:path-effect="#path-effect17837"
       inkscape:original-d="m -84.155391,-17.659575 c -0.684219,-3.564244 15.097636,-5.879234 31.433234,-5.732991 16.335598,0.146243 30.326691,2.050889 28.244189,6.232657"
       inkscape:linked-fill="path17841"
       class="UnoptimicedTransforms"
       sodipodi:nodetypes="csc" />
    <path
       id="path1487-5-6-1-7"
       style="fill:#38a550;fill-opacity:0.368966;fill-rule:nonzero;stroke:none;stroke-width:0.238125;stroke-linecap:round;stroke-linejoin:round"
       transform="matrix(-0.99996925,-0.00215452,-0.00425221,0.565638,0.91183364,24.804645)"
       d="m -70.926013,-21.774815 c 1.220938,-0.224092 2.584452,-0.498696 3.80539,-0.722788 1.193714,-0.218337 2.288278,-0.393761 3.455096,-0.530112 0.08033,-0.0094 0.161447,-0.01861 0.243393,-0.02767 1.307135,-0.144484 2.790511,-0.24329 4.620565,-0.297219 1.893853,-0.05581 4.025276,-0.06011 6.521159,-0.03596 1.7e-5,1e-6 0.04911,4.79e-4 0.04913,4.8e-4 3.265979,0.03279 6.420158,0.186618 9.21907,0.469225 0.77109,0.07786 1.601795,0.171725 2.479863,0.28522 4.01269,0.518664 6.776724,1.159199 7.759672,1.396463 -1.005995,-0.276807 -3.692072,-0.974332 -7.735705,-1.569796 -0.877553,-0.129228 -1.708779,-0.237379 -2.480175,-0.328202 -2.850553,-0.335618 -5.907672,-0.587915 -9.239592,-0.612516 1.9e-5,1e-6 -0.04924,-3.65e-4 -0.04922,-3.65e-4 -2.488738,-0.01803 -4.649975,0.03662 -6.5352,0.149964 -1.835727,0.110368 -3.313609,0.27007 -4.621268,0.447681 -0.08186,0.01112 -0.162886,0.02229 -0.243129,0.03349 -1.17963,0.164703 -2.244505,0.350869 -3.450096,0.585179 -1.150473,0.223597 -2.648478,0.533328 -3.798951,0.756926 z"
       inkscape:path-effect="#path-effect17837-2"
       inkscape:original-d="m -70.926013,-21.774815 c 5.598826,-1.05906 8.163814,-1.884798 18.696297,-1.79307 8.863118,0.07719 15.876137,1.406124 19.457039,2.330711"
       inkscape:linked-fill="path17841"
       class="UnoptimicedTransforms"
       sodipodi:nodetypes="csc" />
    <path
       id="path21084"
       style="fill:#452c3e;fill-opacity:0.658621;stroke:none;stroke-width:0.026711;stroke-linecap:round;stroke-linejoin:round;stroke-dasharray:none;stroke-opacity:1"
       d="m 95.062969,23.781427 c -0.470608,-0.0028 -1.186323,0.372975 -1.323919,0.596218 -0.151749,0.246369 0.316983,0.40111 0.929122,0.697345 10e-7,1e-6 0.416254,0.526126 0.823702,0.874841 -1.163457,-0.625613 -2.766592,-0.51292 -3.938168,0.155901 0.0031,-0.01262 7.88e-4,-0.02614 -0.0078,-0.04055 -0.09872,-0.166616 0.594787,-0.771123 0.448024,-0.782143 -0.146772,-0.01103 -0.331239,-0.204357 -0.331239,-0.204357 l 0.278014,-0.595692 -1.020586,1.11712 -0.02067,0.675223 c 0,0 0.302517,-0.01775 0.4966,-0.07374 -0.13397,0.08528 -0.262122,0.177197 -0.381363,0.277568 -1.970191,1.416505 -3.533209,3.723004 -6.096126,4.053973 -2.68286,0.846187 -5.362737,1.714142 -8.048931,2.560791 -0.09442,-0.0648 -0.227713,-0.11434 -0.3979,-0.07163 -0.366245,0.09191 -0.319869,-0.302324 -0.319869,-0.302324 l -0.208768,-0.04951 c 0.01472,-0.0034 0.02948,-0.007 0.04599,-0.01106 0.68833,-0.16784 -0.438648,-0.08131 0.829904,-0.229112 1.268563,-0.147755 0.613103,-0.01958 1.378178,-0.169068 0.765076,-0.149483 0.67656,-0.265629 0.76376,-0.316018 0.08721,-0.05038 0.335889,-0.465599 0.335889,-0.465599 l -0.938422,0.416617 -2.023085,0.228586 -0.129188,0.325497 c 0,0 -0.269464,0.112226 -0.40255,0.186976 l -0.141074,-0.0337 c 0,0 -0.125029,-0.447293 -0.565326,-0.480346 -0.440289,-0.03306 -0.550341,-0.101127 -0.550341,-0.101127 0,0 0.134922,0.109583 0.36741,0.146948 0.232469,0.03735 0.149515,0.488735 0.259927,0.556717 0.110405,0.06799 -0.107648,0.410162 -0.03359,0.535121 0.047,0.07931 0.555598,0.08071 0.959092,0.07426 -1.086264,0.340385 -2.173927,0.676317 -3.26329,1.005461 0.161976,-0.113272 0.245457,-0.205411 0.245457,-0.205411 0,0 -2.417404,0.427833 -3.553187,0.480873 -1.135787,0.05304 -0.952317,0.13885 -2.929986,0.577784 -1.977679,0.438936 0.668161,0.161169 0.668161,0.161169 0.262656,-0.0092 2.837482,-0.400235 4.062705,-0.56409 -3.252681,0.959907 -6.524349,1.846193 -9.83276,2.581332 l -0.275428,-0.109026 c 0,0 0.0289,-0.242366 -0.911035,-0.05109 -0.931906,0.189645 0.8421,0.09414 1.183363,0.160642 -1.063119,0.236196 -2.130068,0.457327 -3.201279,0.659949 2.315184,-0.112173 4.63048,-0.224386 6.945665,-0.336559 8.569666,-1.26636 17.217327,-2.538734 25.410254,-5.509757 2.046071,-1.440355 5.485868,-2.114552 6.095092,-4.863503 -0.190692,-0.457898 -0.479532,-0.820138 -0.830421,-1.096579 0.0055,0.002 0.01062,0.004 0.01602,0.0058 0.468681,0.154597 0.115236,-0.811112 0.115236,-0.811112 l 0.09147,-0.481925 c 0,0 -0.481656,-1.048227 -0.935321,-1.143982 -0.04253,-0.009 -0.08877,-0.0134 -0.137457,-0.0137 z m -5.024381,3.087487 -0.80665,0.05899 c 0,0 -0.386985,0.767044 -0.789597,0.915923 -0.402609,0.148883 -0.38931,0.288979 -0.547757,0.376588 -0.158438,0.08761 -0.304049,0.315623 -0.12092,0.269667 0.183122,-0.04596 1.012834,-0.302323 1.012834,-0.302323 l 0.573078,-0.334978 c 0.01167,-0.09863 0.679012,-0.983866 0.679012,-0.983866 z m -3.319616,1.806564 c -0.15401,0.0077 -0.865559,0.292315 -0.865559,0.292315 0,0 -0.42493,0.585067 -0.204117,0.721047 0.22081,0.13598 -0.267171,0.258869 -0.461977,0.403448 0,0 0.159602,0.151228 0.367411,0.146947 0.207808,-0.0043 0.985447,-0.821644 0.985447,-0.821644 0,0 0.131399,-0.607102 0.204117,-0.721045 0.01023,-0.01602 -1.19e-4,-0.02233 -0.02532,-0.02107 z m -3.957287,1.423657 c 0,0 -0.414132,0.247455 -0.279047,0.357099 0.13509,0.109642 0.467661,0.552503 0.467661,0.552503 0,0 0.24139,-0.539379 0.180347,-0.524061 z m -2.619934,1.3594 c 0,0 -0.132584,0.0351 -0.579279,0.243333 -0.446702,0.208229 0.134356,0.157481 0.134356,0.157481 l 0.263543,-0.166962 0.487814,-0.174863 z M 65.288744,35.88014 c -0.199256,8.28e-4 -0.44365,0.01042 -0.766344,0.03635 -0.860514,0.06912 -0.0755,0.07834 0.117819,0.182763 0.193303,0.104432 1.472916,-0.09466 1.645857,-0.06057 0.286835,-0.02304 0.132137,-0.10662 -0.232022,-0.125353 -0.227599,-0.01167 -0.433217,-0.03456 -0.76531,-0.03319 z m 0.139523,0.30285 c -0.201848,4.92e-4 -0.617026,0.02613 -1.355957,0.06952 -1.390915,0.08162 -0.465023,-0.0062 -1.291365,0.113767 -0.82634,0.119971 1.25092,0.06789 2.131603,0.0632 0.365789,-0.0267 0.460347,-0.09315 0.627337,-0.18487 0.07828,-0.043 0.06649,-0.06206 -0.111618,-0.06162 z m -7.114127,1.327272 c -0.0064,1.32e-4 -0.01257,1.91e-4 -0.0186,5.26e-4 -0.193129,0.01075 -0.308118,0.05072 -0.326588,0.08533 -0.01847,0.03461 0.912432,0.134121 1.144606,0.137994 l 0.250625,-0.03055 -0.505384,-0.106392 c 0,0 -0.347377,-0.091 -0.544656,-0.08691 z m -1.217468,0.201198 c -0.07103,2.89e-4 -0.09457,0.0042 -0.09457,0.0042 0,0 0.03092,0.07222 0.128155,0.102706 0.09724,0.03048 0.80665,0.0848 0.80665,0.0848 0,0 0.678897,-0.01816 0.684697,-0.05003 0.0058,-0.03188 -0.515935,-0.07049 -0.831455,-0.111659 -0.315517,-0.04116 -0.291234,-0.01407 -0.509518,-0.02476 -0.08186,-0.004 -0.141348,-0.0054 -0.183963,-0.0053 z" />
    <path
       id="path21246"
       style="fill:#452c3e;fill-opacity:0.617241;stroke:none;stroke-width:0.026711;stroke-linecap:round;stroke-linejoin:round;stroke-dasharray:none;stroke-opacity:1"
       d="m 95.776605,70.407111 c -0.556269,0 -1.807476,1.559231 -2.085612,2.267951 -0.278136,0.708718 0.277704,0.850424 0.973044,1.275655 0,0 0.319786,0.975533 0.698649,1.649082 -1.353412,-1.489731 -3.646024,-1.048303 -5.262604,3.785885 -4.075272,5.41393 -9.665966,7.851781 -15.787812,8.921688 l 0.256826,-2.875228 -1.391097,2.267949 c -0.214931,0.350508 -0.389409,0.632996 -0.542072,0.862726 -2.884361,0.387841 -5.862459,0.515158 -8.839564,0.535649 l 0.272846,-0.973332 3.337702,-1.275655 c 0,0 0.973292,-1.984401 0.417019,-2.409631 -0.55627,-0.425232 -2.503233,1.559294 -3.476709,2.126268 -0.973476,0.566976 -1.251573,2.267949 -1.251573,2.267949 l 0.08733,0.266508 c -3.792065,0.009 -7.566841,-0.128569 -11.124124,-0.08638 -0.07803,-0.328571 -0.276823,-0.747381 -0.783913,-0.747381 -0.83441,0 -0.278013,-1.133974 -0.278013,-1.133974 l -0.142107,-0.120613 c -0.06239,-0.16413 -0.385658,-0.287693 1.532687,-0.02107 3.059496,0.425234 1.390751,0.425043 3.337703,0.425043 1.946952,0 1.946997,-0.566662 2.225135,-0.708405 0.278135,-0.141745 1.529586,-1.701225 1.529586,-1.701225 l -2.78116,0.992293 -4.867288,-0.708405 -0.834556,1.275656 c 0,0 -0.213138,0.0689 -0.475412,0.163275 l -0.359142,-0.304956 c 0,0 0.278381,-1.417673 -0.556025,-1.842907 -0.834411,-0.42523 -0.973561,-0.70893 -0.973561,-0.70893 0,0 0.13882,0.425445 0.556025,0.70893 0.417206,0.283489 -0.278075,1.559419 -0.139007,1.842907 0.139067,0.28349 -0.695032,1.133788 -0.695032,1.559018 0,0.313217 1.356095,0.779806 2.182762,1.060763 -0.05943,0.0017 -0.120031,0.0023 -0.179313,0.0042 -1.701043,0.381985 -3.624038,0.301151 -5.638283,-0.0085 0.63591,-0.445795 1.478945,-1.907162 1.478945,-1.907162 0,0 -1.946874,-0.283448 -2.503148,-1.275655 -0.556272,-0.992207 -0.695263,-0.283489 -2.503147,0 -1.807883,0.283487 -0.139007,1.701224 -0.139007,1.701224 0.118088,0.240721 1.940328,0.889587 2.828185,1.340439 -6.988574,-1.263419 -14.84117,-4.841606 -18.293027,-1.296723 1.131794,1.969637 3.066715,3.355102 5.034717,4.349975 20.405207,8.592178 47.276926,9.623288 63.681435,-7.738205 2.617556,-2.745318 2.578399,-6.234628 1.451557,-8.084243 0.05391,0.04479 0.10701,0.07573 0.15916,0.08901 0.55627,0.141743 0.417536,-2.126269 0.417536,-2.126269 l 0.278012,-1.275655 c 0,0 -0.278281,-2.409631 -0.834554,-2.409631 z m -5.562321,2.551312 -3.337702,2.551311 -0.834555,1.984587 c 0,0 1.529586,0.425296 1.529586,-0.141681 0,-0.566975 2.086252,-1.842843 1.808117,-1.984587 -0.278137,-0.141743 -0.417536,-0.850086 -0.417536,-0.850086 z m -65.431675,6.520486 c -0.556273,0 -1.112444,0.566997 -1.39058,1.133974 -0.278136,0.566973 1.390333,3.118436 1.946605,3.401924 l 0.834555,-0.283889 -0.556542,-2.267949 c 0,0 -0.277766,-1.98406 -0.834038,-1.98406 z m 11.90287,1.133974 c -1.164378,0.01305 -0.22117,0.43633 -0.22117,1.133975 0,0.708719 2.086065,0.141555 2.225134,0.425043 0.417203,0 0.417203,-0.567124 0,-0.850613 -0.417204,-0.283487 -0.695509,-0.708405 -1.947122,-0.708405 -0.01956,0 -0.03836,-2.07e-4 -0.05684,0 z m -6.22273,0.318651 c -0.09126,0 -0.256703,0.106266 -0.534839,0.389754 -1.112545,1.13395 0.278013,0.850886 0.278013,1.417863 l 0.139524,-0.850612 c 0,0 0.391091,-0.957006 0.117302,-0.957005 z m 36.109607,0.106392 c 0,0 -1.112631,0.425383 -0.973561,0.850613 0.139068,0.425233 0.278529,1.984061 0.278529,1.984061 0,0 1.112114,-1.417337 0.973045,-1.417337 z m 14.880395,0.708932 c 0,0 -1.668677,1.983999 -2.642154,2.125742 -0.973476,0.141745 -1.112898,0.567189 -1.530103,0.70893 -0.417202,0.141746 -0.973229,0.708932 -0.556025,0.708932 0.417203,0 2.364141,-0.14168 2.364141,-0.14168 l 1.529587,-0.567252 c 0.139067,-0.283485 2.503147,-2.409629 2.503147,-2.409629 z m -63.067533,0.566723 c 0,0 -0.139131,0.708744 0.139005,1.133975 0.278137,0.425231 2.920684,1.984588 2.920684,1.984588 0,0 2.781097,0.850209 2.920166,0.566723 0.139068,-0.283488 -1.807621,-1.417487 -2.920166,-2.267949 -1.112544,-0.850464 -1.112715,-0.566536 -1.947122,-0.991767 -0.834408,-0.425231 -1.112567,-0.42557 -1.112567,-0.42557 z m 15.401798,0 c -0.104302,0 -0.104408,0.14202 -1.216952,0.567252 -2.225086,0.850464 1.947415,2.267573 3.616231,3.118034 0.83441,0 1.39021,-0.850111 2.224619,-1.98406 0.834408,-1.133953 0.278334,-1.134376 -2.781161,-1.417863 -1.529749,-0.141743 -1.738437,-0.283363 -1.842737,-0.283363 z m 25.414904,0.708932 c 0,0 -0.417312,0.141703 -2.086129,1.275656 -1.668815,1.13395 -0.139005,1.275655 -0.139005,1.275655 l 1.112566,-0.992294 1.668593,-0.850612 z m 14.532622,0.610967 c -0.54758,-1e-6 -1.877361,0.23912 -1.877361,0.23912 0,0 -1.52971,1.417611 -1.251574,1.984587 0.278137,0.566975 -0.834826,0.567123 -1.391097,0.850612 0,0 0.139339,0.56666 0.556542,0.708405 0.417206,0.141744 2.920166,-1.700699 2.920166,-1.700699 0,0 0.973955,-1.701099 1.252091,-1.984587 0.06954,-0.07088 -0.02624,-0.09744 -0.208767,-0.09744 z" />
  </g>
</svg>
